<?xml version="1.0" encoding="utf-8"?>
<svg height="485" viewBox="0 0 296 242.5" width="592" version="1.1" id="svg3997" xmlns="http://www.w3.org/2000/svg">
  <path d="M 77.155574,240.2545 2.8921283,122.05357 A 253.4126,227.58058 77.443599 0 1 165.12174,2.6244695 L 239.3852,120.82543 A 253.4126,227.58058 77.443599 0 1 77.155574,240.2545 Z" id="path3913" style="stroke-width: 0.843542; fill: rgb(81, 142, 188);"/>
  <path d="m 239.3852,120.82543 -4.89672,-7.79386 A 253.4126,227.58058 77.443599 0 1 72.258845,232.46065 l 4.896729,7.79385 A 253.4126,227.58058 77.443599 0 0 239.3852,120.82543 Z" id="path3915" style="stroke-width: 0.843542; fill: rgb(75, 131, 173);"/>
  <path d="m 165.12174,2.6244695 4.89672,7.7938345 A 253.4126,227.58058 77.443599 0 0 7.788851,129.8474 L 2.8921283,122.05357 A 253.4126,227.58058 77.443599 0 1 165.12174,2.6244695 Z" id="path3917" style="stroke-width: 0.843542; fill: rgb(75, 131, 173);"/>
  <path d="M 75.847263,241.21765 1.5838186,123.01671 A 1.780258,1.5987846 77.443598 0 1 1.4812472,121.13425 255.19374,229.18015 77.443601 0 1 164.85039,0.866258 1.780258,1.5987846 77.443598 0 1 166.43006,1.6613303 L 240.6935,119.86227 a 1.780258,1.5987846 77.443598 0 1 0.10257,1.88248 256.69183,230.52554 77.4436 0 1 -68.30891,81.4233 256.69183,230.52554 77.4436 0 1 -95.059789,38.84542 1.780258,1.5987846 77.443598 0 1 -1.58014,-0.79581 z M 4.7901502,122.02904 77.878827,238.36018 a 253.12331,227.32079 77.443602 0 0 92.741533,-38.16345 253.12331,227.32079 77.443602 0 0 66.86915,-79.34307 L 164.40317,4.5262283 A 251.62966,225.9794 77.443606 0 0 4.7901502,122.02904 Z" id="path3919" style="fill:#000500;fill-opacity:1;stroke-width:0.8435415"/>
  <path d="m 57.786492,210.94858 a 1.8069619,1.6227664 77.443608 0 1 -0.184403,-0.37876 1.780258,1.5987846 77.443598 0 1 0.890824,-2.25807 C 118.23589,184.82513 176.66472,141.8114 218.79932,90.298475 a 1.7802784,1.5988029 77.443602 1 1 2.43173,2.439068 C 178.77125,144.64647 119.89759,187.98767 59.69482,211.65617 a 1.780258,1.5987846 77.443598 0 1 -1.908328,-0.70759 z" id="path3921" style="fill:#000500;fill-opacity:1;stroke-width:0.8435415"/>
  <path d="m 20.952903,152.32264 a 1.780258,1.5987846 77.443598 0 1 0.09337,-2.1812 C 63.506087,98.232494 122.37974,54.891285 182.58249,31.222822 a 1.7802669,1.5987926 77.443605 1 1 1.20192,3.344401 C 124.04144,58.053847 65.612599,101.0676 23.478005,152.5805 a 1.780258,1.5987846 77.443598 0 1 -2.267451,0.067 1.8069619,1.6227664 77.443608 0 1 -0.257651,-0.32483 z" id="path3923" style="fill:#000500;fill-opacity:1;stroke-width:0.8435415"/>
  <path d="m 39.369699,181.63559 a 1.780258,1.5987846 77.443598 0 1 0.373726,-2.45064 L 200.66475,60.718997 a 1.780258,1.5987846 77.443598 0 1 1.86913,2.975019 L 41.612574,182.15996 a 1.780258,1.5987846 77.443598 0 1 -2.242875,-0.52437 z" id="path3925" style="fill:#000500;fill-opacity:1;stroke-width:0.8435415"/>
  <path d="M 149.59021,5.4106547 231.28355,135.43736 c 2.84051,-4.74634 5.55513,-9.60778 8.10165,-14.61194 L 165.12174,2.6244695 c -5.23527,0.7245797 -10.40972,1.6708695 -15.53153,2.7861852 z" id="path3927" style="fill:#f4efed;stroke-width:0.8435415"/>
  <path d="M 90.602763,28.234475 189.99514,186.43175 c 3.65884,-3.37229 7.22769,-6.86651 10.67968,-10.50863 L 103.55581,21.344233 c -4.39734,2.137473 -8.711045,4.446153 -12.953047,6.890242 z" id="path3929" style="fill:#f4efed;stroke-width:0.8435415"/>
  <path d="M 92.687114,237.46834 10.993767,107.44162 c -2.840499,4.74634 -5.5557847,9.60825 -8.1016387,14.61195 L 77.155574,240.2545 c 5.234633,-0.72409 10.409727,-1.67087 15.53154,-2.78616 z" id="path3931" style="fill:#f4efed;stroke-width:0.8435415"/>
  <path d="M 41.60109,66.953629 138.72106,221.534 c 4.3978,-2.13673 8.7115,-4.4454 12.9535,-6.88949 L 52.281244,56.445739 c -3.658839,3.37231 -7.228326,6.867018 -10.680154,10.50789 z" id="path3933" style="fill:#f4efed;stroke-width:0.8435415"/>
  <path d="m 87.790861,229.67522 c -5.12181,1.11533 -10.296913,2.06208 -15.532016,2.78543 l 4.896729,7.79385 c 5.234633,-0.72409 10.409727,-1.67087 15.53154,-2.78616 z" id="path3935" style="fill:#d6d1cf;stroke-width:0.8435415"/>
  <path d="m 15.890022,115.23473 c -2.840499,4.74632 -5.555786,9.60823 -8.101171,14.61267 l -4.8967227,-7.79383 c 2.545854,-5.0037 5.2606727,-9.86635 8.1016387,-14.61195 z" id="path3937" style="fill:#ffffff;stroke-width:0.8435415"/>
  <path d="m 146.77831,206.8514 c -4.24247,2.44336 -8.55635,4.75325 -12.9535,6.88952 l 4.89625,7.79308 c 4.3978,-2.13673 8.7115,-4.4454 12.9535,-6.88949 z" id="path3939" style="fill:#d6d1cf;stroke-width:0.8435415"/>
  <path d="m 57.1775,64.238829 c -3.65884,3.372309 -7.228327,6.867018 -10.679688,10.50864 l -4.896722,-7.79384 c 3.452489,-3.641365 7.021315,-7.13558 10.680154,-10.50789 z" id="path3941" style="fill:#ffffff;stroke-width:0.8435415"/>
  <path d="m 200.67575,175.92461 -4.89626,-7.7931 c -3.45201,3.64209 -7.02129,7.13559 -10.67969,10.50863 l 4.89628,7.79309 c 3.65884,-3.37229 7.22767,-6.86651 10.67967,-10.50862 z" id="path3943" style="fill:#d6d1cf;stroke-width:0.8435415"/>
  <path d="m 103.55581,21.344233 4.89671,7.793836 c -4.39779,2.136732 -8.7115,4.445413 -12.953508,6.8895 l -4.896249,-7.793094 c 4.242002,-2.444089 8.555707,-4.752769 12.953047,-6.890242 z" id="path3945" style="fill:#ffffff;stroke-width:0.8435415"/>
  <path d="m 239.3852,120.82543 -4.89672,-7.79386 c -2.5454,5.00443 -5.26067,9.86636 -8.10165,14.61194 l 4.89672,7.79385 c 2.84051,-4.74634 5.55579,-9.60826 8.10165,-14.61193 z" id="path3947" style="fill:#d6d1cf;stroke-width:0.8435415"/>
  <path d="m 165.12174,2.6244695 4.89672,7.7938345 c -5.2351,0.723357 -10.41019,1.670128 -15.53199,2.785444 l -4.89626,-7.7930933 c 5.12181,-1.1153157 10.29692,-2.0620879 15.53153,-2.7861852 z" id="path3949" style="fill:#ffffff;stroke-width:0.8435415"/>
  <g id="g3961" transform="matrix(0.46728905,0.74375769,-0.65415171,0.48156891,145.05709,-35.402319)" style="fill:#001100;fill-opacity:1">
    <path d="M 207.462,254 H 48.538 a 2,2 0 0 1 -1.8,-1.129 c -2.756,-5.7 -5.45,-11.817 -8.006,-18.191 a 2,2 0 0 1 1.857,-2.744 h 174.823 a 2,2 0 0 1 1.857,2.744 c -2.556,6.374 -5.25,12.494 -8.006,18.191 A 2,2 0 0 1 207.462,254 Z M 49.8,250 h 156.4 c 2.132,-4.461 4.222,-9.177 6.236,-14.064 H 43.56 c 2.014,4.887 4.104,9.603 6.24,14.064 z" id="path3951" style="fill:#001100;fill-opacity:1"/>
    <path d="M 231.919,177.354 H 24.081 a 2,2 0 0 1 -1.973,-1.667 c -0.975,-5.792 -1.8,-11.912 -2.449,-18.19 a 2,2 0 0 1 1.989,-2.206 h 212.7 a 2,2 0 0 1 1.989,2.206 c -0.65,6.278 -1.474,12.4 -2.449,18.19 a 2,2 0 0 1 -1.969,1.667 z m -206.141,-4 h 204.444 c 0.731,-4.523 1.37,-9.239 1.9,-14.063 H 23.874 c 0.534,4.824 1.173,9.54 1.904,14.063 z" id="path3953" style="fill:#001100;fill-opacity:1"/>
    <path d="M 234.352,100.709 H 21.648 A 2,2 0 0 1 19.659,98.5 c 0.65,-6.278 1.474,-12.4 2.449,-18.19 a 2,2 0 0 1 1.973,-1.667 h 207.838 a 2,2 0 0 1 1.973,1.667 c 0.975,5.792 1.8,11.912 2.449,18.19 a 2,2 0 0 1 -1.989,2.206 z m -210.478,-4 h 208.252 c -0.534,-4.824 -1.173,-9.54 -1.9,-14.063 H 25.778 c -0.731,4.523 -1.37,9.239 -1.904,14.063 z" id="path3955" style="fill:#001100;fill-opacity:1"/>
    <path d="M 215.412,24.064 H 40.588 A 2,2 0 0 1 38.731,21.32 C 41.286,14.948 43.98,8.828 46.737,3.129 A 2,2 0 0 1 48.538,2 h 158.924 a 2,2 0 0 1 1.8,1.129 c 2.757,5.7 5.451,11.819 8.006,18.191 a 2,2 0 0 1 -1.857,2.744 z m -171.852,-4 H 212.44 C 210.427,15.178 208.34,10.464 206.204,6 H 49.8 c -2.136,4.463 -4.227,9.178 -6.24,14.064 z" id="path3957" style="fill:#001100;fill-opacity:1"/>
    <path d="m 30.621,131.59 a 2,2 0 0 1 -2,-1.986 c -0.043,-6.482 0.186,-12.042 0.189,-12.1 a 1.964,1.964 0 0 1 2.081,-1.915 2,2 0 0 1 1.915,2.082 c 0,0.055 -0.227,5.522 -0.185,11.9 a 2,2 0 0 1 -1.986,2.013 z" id="path3959" style="fill:#001100;fill-opacity:1"/>
  </g>
  <ellipse cx="170.07471" cy="-38.071831" id="circle3963" rx="63.681858" ry="58.891384" style="fill:#f4efed;stroke-width:0.84468681" transform="matrix(0.53199543,0.84674722,-0.80531306,0.5928498,0,0)"/>
  <path d="M 72.404361,157.31637 A 66.314608,59.554723 77.443604 1 1 155.95172,176.84943 66.38938,59.621873 77.443602 0 1 72.404361,157.31637 Z M 167.25634,87.488884 a 62.754092,56.357155 77.443608 1 0 -13.17381,86.385526 62.825302,56.421107 77.443607 0 0 13.17381,-86.385526 z" id="path3965" style="fill:#000500;stroke-width:0.8435415;fill-opacity:1"/>
  <path d="m 127.44421,112.5771 a 2.4440053,1.938643 82.961697 0 1 0.095,-2.99481 55.695215,44.178766 82.961696 0 1 10.11509,-9.65992 c 8.3001,-5.644019 16.95596,-6.647328 25.03103,-2.90032 a 2.4441526,1.9387598 82.961697 0 1 -1.16834,4.55967 c -16.98446,-7.881267 -30.87244,11.1718 -31.01128,11.36419 a 2.4440053,1.938643 82.961697 0 1 -3.06154,-0.36881 z" id="path3967" style="stroke-width: 1.08835; fill: rgb(10, 201, 10);"/>
  <path d="m 164.4282,111.71696 a 2.1159708,1.6060486 83.712488 0 1 -0.25433,-0.71932 l -4.60032,-23.023425 a 2.1108428,1.6021564 83.712496 0 1 3.11126,-0.828544 l 4.60031,23.023399 a 2.1106941,1.6020436 83.712497 0 1 -2.85645,1.54879 z" id="path3969" style="stroke-width: 0.919432; fill: rgb(10, 201, 10);"/>
  <path d="m 106.2148,77.652663 45.09934,67.707477 -75.697068,3.03031 z" id="path3971" style="stroke-width: 1.25366; fill: rgb(10, 201, 10);"/>
  <path d="m 237.48423,105.29312 v 0 0 0 l -3.04642,4.65444 4.09275,7.6835 v 0 0 0 -2e-5 c 7.68182,-3.17025 2.72328,1.95363 7.02008,11.27162 4.27877,9.27885 5.48571,20.04327 3.39834,30.30702 -3.90056,19.17862 -16.00825,25.08183 -17.33349,26.45663 -9.32696,7.86159 -34.97201,29.13916 -29.17329,41.71414 6.55433,14.21367 41.64483,-8.8668 52.52655,-17.15952 l 0.0216,0.0471 c 10.09032,-7.3058 38.00222,-31.25837 32.05901,-44.14673 -1.9734,-4.27947 -6.24444,-4.80123 -9.752,-4.45598 0.4797,-39.79786 -16.36728,-66.996875 -42.85956,-51.71779 z" id="path4033" style="fill-opacity: 1; stroke-width: 0.262311; fill: rgb(10, 201, 10);"/>
  <g id="g5297" transform="matrix(0.05098998,0.07558633,-0.07379707,0.05151815,116.15675,101.00031)">
    <path id="path5230" d="m 161.837,388.8 c -84,0 -152.8,-80.8 -152.8,-180 v -35.2 h 304.8 v 35.2 c 0,99.2 -68,180 -152,180 z" style="fill:#c19881"/>
    <g id="g5238">
      <path id="path5232" d="M 348.237,165.6 H 9.037 c -4.8,0 -8,3.2 -8,8 v 35.2 c 0,104 72,188 160.8,188 57.6,0 108,-36 136,-88.8 28.8,-2.4 81.6,-23.2 95.2,-71.2 5.6,-17.6 2.4,-36.8 -8,-52 -8.8,-12 -22.4,-18.4 -36.8,-19.2 z m -42.4,43.2 c 0,95.2 -64.8,172 -144.8,172 -80,0 -144,-76.8 -144,-172 v -27.2 h 288.8 z m 72,24 c -9.6,33.6 -46.4,52.8 -72,58.4 10.4,-25.6 16,-53.6 16,-81.6 v -27.2 h 26.4 c 9.6,0 19.2,4.8 24.8,12.8 7.2,10.4 9.6,24.8 4.8,37.6 z" style="fill:#301913"/>
      <path id="path5234" d="m 134.637,148 c 4.8,0 8,-3.2 8,-8 V 54.4 c 0,-4.8 -3.2,-8 -8,-8 -4.8,0 -8,3.2 -8,8 V 140 c 0,4 3.2,8 8,8 z" style="fill:#301913"/>
      <path id="path5236" d="m 188.237,148 c 4.8,0 8,-3.2 8,-8 V 8 c 0,-4.8 -3.2,-8 -8,-8 -4.8,0 -8,3.2 -8,8 v 132 c 0,4 4,8 8,8 z" style="fill:#301913"/>
    </g>
    <g id="g5240"/>
    <g id="g5242"/>
    <g id="g5244"/>
    <g id="g5246"/>
    <g id="g5248"/>
    <g id="g5250"/>
    <g id="g5252"/>
    <g id="g5254"/>
    <g id="g5256"/>
    <g id="g5258"/>
    <g id="g5260"/>
    <g id="g5262"/>
    <g id="g5264"/>
    <g id="g5266"/>
    <g id="g5268"/>
  </g>
</svg>